<svg xmlns="http://www.w3.org/2000/svg" xmlns:xlink="http://www.w3.org/1999/xlink" width="160" zoomAndPan="magnify" viewBox="0 0 120 37.5" height="50" preserveAspectRatio="xMidYMid meet" version="1.0"><defs><g/><clipPath id="57df7e0326"><path d="M 9 30 L 35 30 L 35 31.382812 L 9 31.382812 Z M 9 30 " clip-rule="nonzero"/></clipPath><clipPath id="069bd0fa9e"><path d="M 20 2.515625 L 24 2.515625 L 24 7 L 20 7 Z M 20 2.515625 " clip-rule="nonzero"/></clipPath><clipPath id="a86c6f70ed"><path d="M 7.207031 6 L 21 6 L 21 24 L 7.207031 24 Z M 7.207031 6 " clip-rule="nonzero"/></clipPath><clipPath id="42ff83c78d"><path d="M 22 6 L 36.074219 6 L 36.074219 24 L 22 24 Z M 22 6 " clip-rule="nonzero"/></clipPath><clipPath id="1370396fe7"><path d="M 84 30 L 110 30 L 110 31.382812 L 84 31.382812 Z M 84 30 " clip-rule="nonzero"/></clipPath><clipPath id="baeb294d1e"><path d="M 95 2.515625 L 99 2.515625 L 99 7 L 95 7 Z M 95 2.515625 " clip-rule="nonzero"/></clipPath><clipPath id="7fefd3ffa4"><path d="M 82.890625 6 L 97 6 L 97 24 L 82.890625 24 Z M 82.890625 6 " clip-rule="nonzero"/></clipPath><clipPath id="43cf2ce606"><path d="M 98 6 L 111.753906 6 L 111.753906 24 L 98 24 Z M 98 6 " clip-rule="nonzero"/></clipPath></defs><g clip-path="url(#57df7e0326)"><path fill="#872b06" d="M 33.144531 30.289062 L 10.335938 30.289062 C 9.886719 30.289062 9.484375 30.589844 9.359375 31.019531 L 9.195312 31.578125 L 34.28125 31.578125 L 34.117188 31.019531 C 33.992188 30.589844 33.59375 30.289062 33.144531 30.289062 Z M 33.144531 30.289062 " fill-opacity="1" fill-rule="nonzero"/></g><path fill="#872b06" d="M 20.972656 6.949219 L 22.503906 6.949219 L 22.503906 7.75 L 20.972656 7.75 Z M 20.972656 6.949219 " fill-opacity="1" fill-rule="nonzero"/><g clip-path="url(#069bd0fa9e)"><path fill="#872b06" d="M 22.636719 6.472656 C 23.015625 6.054688 23.242188 5.410156 23.242188 4.71875 C 23.242188 3.503906 22.566406 2.515625 21.738281 2.515625 C 20.910156 2.515625 20.234375 3.503906 20.234375 4.71875 C 20.234375 5.410156 20.460938 6.054688 20.839844 6.472656 Z M 22.636719 6.472656 " fill-opacity="1" fill-rule="nonzero"/></g><path fill="#872b06" d="M 20.972656 8.226562 L 22.503906 8.226562 L 22.503906 26.65625 L 20.972656 26.65625 Z M 20.972656 8.226562 " fill-opacity="1" fill-rule="nonzero"/><path fill="#872b06" d="M 15.417969 28.53125 C 14.976562 28.53125 14.582031 28.824219 14.457031 29.25 L 14.292969 29.8125 L 29.183594 29.8125 L 29.019531 29.25 C 28.898438 28.824219 28.5 28.53125 28.058594 28.53125 Z M 15.417969 28.53125 " fill-opacity="1" fill-rule="nonzero"/><path fill="#872b06" d="M 20.734375 27.128906 L 18.058594 27.128906 L 18.058594 28.054688 L 25.421875 28.054688 L 25.421875 27.128906 Z M 20.734375 27.128906 " fill-opacity="1" fill-rule="nonzero"/><g clip-path="url(#a86c6f70ed)"><path fill="#872b06" d="M 17.382812 20.328125 L 16.21875 20.328125 L 13.691406 10.421875 C 13.898438 10.457031 14.105469 10.480469 14.3125 10.480469 C 15.28125 10.480469 16.023438 10.191406 16.746094 9.914062 C 17.320312 9.691406 17.859375 9.480469 18.4375 9.460938 C 19.285156 9.433594 20.054688 9.808594 20.496094 10.082031 L 20.496094 8.152344 C 20.144531 8.035156 19.082031 7.71875 18.128906 7.878906 C 17.632812 7.964844 17.15625 8.222656 16.644531 8.496094 C 15.9375 8.875 15.203125 9.269531 14.3125 9.269531 C 13.285156 9.269531 12.714844 8.910156 12.433594 8.648438 C 12.335938 8.757812 12.226562 8.855469 12.09375 8.929688 C 11.980469 8.992188 11.835938 8.953125 11.769531 8.839844 C 11.703125 8.726562 11.746094 8.582031 11.859375 8.515625 C 12.132812 8.359375 12.304688 8.0625 12.304688 7.746094 C 12.304688 7.261719 11.90625 6.863281 11.421875 6.863281 C 10.933594 6.863281 10.535156 7.261719 10.535156 7.746094 C 10.535156 8.214844 10.808594 8.707031 11.238281 9.144531 L 8.382812 20.328125 L 7.222656 20.328125 C 7.40625 22.0625 9.613281 23.433594 12.300781 23.433594 C 14.988281 23.433594 17.195312 22.0625 17.382812 20.328125 Z M 15.726562 20.328125 L 12.539062 20.328125 L 12.539062 10.046875 C 12.742188 10.144531 12.949219 10.222656 13.160156 10.289062 Z M 12.0625 9.792969 L 12.0625 20.328125 L 8.875 20.328125 L 11.640625 9.5 C 11.777344 9.601562 11.914062 9.699219 12.0625 9.792969 Z M 12.0625 9.792969 " fill-opacity="1" fill-rule="nonzero"/></g><g clip-path="url(#42ff83c78d)"><path fill="#872b06" d="M 35.097656 20.328125 L 32.238281 9.144531 C 32.667969 8.707031 32.941406 8.214844 32.941406 7.746094 C 32.941406 7.261719 32.542969 6.863281 32.058594 6.863281 C 31.570312 6.863281 31.175781 7.261719 31.175781 7.746094 C 31.175781 8.0625 31.34375 8.359375 31.621094 8.515625 C 31.734375 8.582031 31.773438 8.726562 31.707031 8.839844 C 31.640625 8.953125 31.496094 8.996094 31.382812 8.929688 C 31.253906 8.855469 31.140625 8.757812 31.042969 8.648438 C 30.761719 8.910156 30.191406 9.269531 29.164062 9.269531 C 28.273438 9.269531 27.542969 8.875 26.832031 8.496094 C 26.324219 8.222656 25.84375 7.964844 25.347656 7.878906 C 24.394531 7.71875 23.332031 8.035156 22.980469 8.152344 L 22.980469 10.082031 C 23.421875 9.8125 24.191406 9.4375 25.042969 9.460938 C 25.617188 9.480469 26.160156 9.691406 26.730469 9.914062 C 27.453125 10.191406 28.199219 10.480469 29.164062 10.480469 C 29.371094 10.480469 29.578125 10.457031 29.789062 10.421875 L 27.257812 20.328125 L 26.097656 20.328125 C 26.28125 22.0625 28.492188 23.433594 31.175781 23.433594 C 33.863281 23.433594 36.070312 22.0625 36.257812 20.328125 Z M 31.835938 9.5 L 34.601562 20.328125 L 31.414062 20.328125 L 31.414062 9.792969 C 31.5625 9.699219 31.703125 9.601562 31.835938 9.5 Z M 30.9375 10.046875 L 30.9375 20.328125 L 27.753906 20.328125 L 30.316406 10.289062 C 30.527344 10.222656 30.738281 10.144531 30.9375 10.046875 Z M 30.9375 10.046875 " fill-opacity="1" fill-rule="nonzero"/></g><g fill="#872b06" fill-opacity="1"><g transform="translate(41.409194, 35.478713)"><g><path d="M 4.34375 0 L 0.28125 0 L 0.28125 -0.234375 C 0.425781 -0.242188 0.539062 -0.257812 0.625 -0.28125 C 0.71875 -0.300781 0.789062 -0.332031 0.84375 -0.375 C 0.894531 -0.425781 0.925781 -0.5 0.9375 -0.59375 C 0.957031 -0.6875 0.96875 -0.804688 0.96875 -0.953125 L 0.96875 -3.875 C 0.96875 -4.03125 0.957031 -4.148438 0.9375 -4.234375 C 0.925781 -4.328125 0.898438 -4.398438 0.859375 -4.453125 C 0.816406 -4.503906 0.753906 -4.535156 0.671875 -4.546875 C 0.585938 -4.566406 0.476562 -4.582031 0.34375 -4.59375 L 0.34375 -4.84375 L 2.25 -4.84375 L 2.25 -4.59375 C 2.113281 -4.59375 2.003906 -4.582031 1.921875 -4.5625 C 1.847656 -4.539062 1.785156 -4.5 1.734375 -4.4375 C 1.691406 -4.382812 1.664062 -4.3125 1.65625 -4.21875 C 1.644531 -4.125 1.640625 -4 1.640625 -3.84375 L 1.640625 -1.125 C 1.640625 -0.945312 1.65625 -0.800781 1.6875 -0.6875 C 1.71875 -0.582031 1.773438 -0.5 1.859375 -0.4375 C 1.953125 -0.382812 2.066406 -0.34375 2.203125 -0.3125 C 2.347656 -0.289062 2.53125 -0.28125 2.75 -0.28125 C 2.988281 -0.28125 3.1875 -0.289062 3.34375 -0.3125 C 3.507812 -0.34375 3.648438 -0.394531 3.765625 -0.46875 C 3.878906 -0.539062 3.96875 -0.632812 4.03125 -0.75 C 4.09375 -0.875 4.148438 -1.035156 4.203125 -1.234375 L 4.4375 -1.234375 Z M 4.34375 0 "/></g></g></g><g fill="#872b06" fill-opacity="1"><g transform="translate(45.971139, 35.478713)"><g><path d="M 3.0625 -1.75 L 1.390625 -1.75 C 1.316406 -1.582031 1.253906 -1.429688 1.203125 -1.296875 C 1.148438 -1.160156 1.109375 -1.046875 1.078125 -0.953125 C 1.046875 -0.859375 1.023438 -0.773438 1.015625 -0.703125 C 1.003906 -0.640625 1 -0.585938 1 -0.546875 C 1 -0.429688 1.035156 -0.347656 1.109375 -0.296875 C 1.179688 -0.253906 1.304688 -0.234375 1.484375 -0.234375 L 1.484375 0 L -0.03125 0 L -0.03125 -0.234375 C 0.0625 -0.242188 0.140625 -0.257812 0.203125 -0.28125 C 0.273438 -0.3125 0.335938 -0.34375 0.390625 -0.375 C 0.441406 -0.414062 0.488281 -0.460938 0.53125 -0.515625 C 0.570312 -0.578125 0.609375 -0.65625 0.640625 -0.75 L 2.28125 -4.84375 L 2.546875 -4.84375 L 3.96875 -1.296875 C 4.070312 -1.054688 4.15625 -0.863281 4.21875 -0.71875 C 4.289062 -0.582031 4.359375 -0.476562 4.421875 -0.40625 C 4.492188 -0.34375 4.566406 -0.300781 4.640625 -0.28125 C 4.722656 -0.257812 4.820312 -0.25 4.9375 -0.25 L 4.9375 0 L 2.890625 0 L 2.890625 -0.25 C 3.109375 -0.25 3.257812 -0.269531 3.34375 -0.3125 C 3.425781 -0.351562 3.46875 -0.421875 3.46875 -0.515625 C 3.46875 -0.554688 3.460938 -0.59375 3.453125 -0.625 C 3.453125 -0.664062 3.445312 -0.707031 3.4375 -0.75 C 3.425781 -0.789062 3.410156 -0.835938 3.390625 -0.890625 C 3.367188 -0.941406 3.347656 -1.003906 3.328125 -1.078125 Z M 1.515625 -2.0625 L 2.953125 -2.0625 L 2.25 -3.921875 Z M 1.515625 -2.0625 "/></g></g></g><g fill="#872b06" fill-opacity="1"><g transform="translate(50.815458, 35.478713)"><g><path d="M 5.234375 -0.953125 L 6.21875 -3.671875 C 6.28125 -3.835938 6.320312 -3.96875 6.34375 -4.0625 C 6.363281 -4.15625 6.375 -4.238281 6.375 -4.3125 C 6.375 -4.425781 6.335938 -4.5 6.265625 -4.53125 C 6.203125 -4.570312 6.082031 -4.59375 5.90625 -4.59375 L 5.90625 -4.84375 L 7.4375 -4.84375 L 7.4375 -4.59375 C 7.238281 -4.59375 7.09375 -4.550781 7 -4.46875 C 6.90625 -4.394531 6.820312 -4.269531 6.75 -4.09375 L 5.171875 0.0625 L 4.953125 0.0625 L 3.75 -3.515625 L 2.40625 0.0625 L 2.1875 0.0625 L 0.890625 -3.546875 C 0.804688 -3.742188 0.734375 -3.910156 0.671875 -4.046875 C 0.617188 -4.179688 0.554688 -4.285156 0.484375 -4.359375 C 0.421875 -4.441406 0.34375 -4.5 0.25 -4.53125 C 0.164062 -4.570312 0.0625 -4.59375 -0.0625 -4.59375 L -0.0625 -4.84375 L 1.984375 -4.84375 L 1.984375 -4.59375 C 1.765625 -4.59375 1.613281 -4.570312 1.53125 -4.53125 C 1.445312 -4.5 1.40625 -4.425781 1.40625 -4.3125 C 1.40625 -4.257812 1.410156 -4.195312 1.421875 -4.125 C 1.441406 -4.050781 1.46875 -3.96875 1.5 -3.875 L 2.453125 -0.96875 L 3.234375 -3.140625 C 3.285156 -3.304688 3.335938 -3.457031 3.390625 -3.59375 C 3.453125 -3.738281 3.5 -3.863281 3.53125 -3.96875 C 3.476562 -4.09375 3.425781 -4.191406 3.375 -4.265625 C 3.320312 -4.347656 3.269531 -4.410156 3.21875 -4.453125 C 3.175781 -4.503906 3.128906 -4.539062 3.078125 -4.5625 C 3.023438 -4.582031 2.972656 -4.59375 2.921875 -4.59375 L 2.921875 -4.84375 L 4.84375 -4.84375 L 4.84375 -4.59375 C 4.71875 -4.59375 4.613281 -4.585938 4.53125 -4.578125 C 4.457031 -4.566406 4.398438 -4.550781 4.359375 -4.53125 C 4.328125 -4.519531 4.300781 -4.492188 4.28125 -4.453125 C 4.269531 -4.421875 4.265625 -4.382812 4.265625 -4.34375 C 4.265625 -4.28125 4.273438 -4.203125 4.296875 -4.109375 C 4.316406 -4.015625 4.347656 -3.898438 4.390625 -3.765625 Z M 5.234375 -0.953125 "/></g></g></g><g fill="#872b06" fill-opacity="1"><g transform="translate(58.194892, 35.478713)"><g/></g></g><g fill="#872b06" fill-opacity="1"><g transform="translate(59.995826, 35.478713)"><g><path d="M 1.640625 -1 C 1.640625 -0.84375 1.644531 -0.710938 1.65625 -0.609375 C 1.675781 -0.515625 1.71875 -0.441406 1.78125 -0.390625 C 1.84375 -0.335938 1.929688 -0.300781 2.046875 -0.28125 C 2.160156 -0.257812 2.3125 -0.242188 2.5 -0.234375 L 2.5 0 L 0.28125 0 L 0.28125 -0.234375 C 0.425781 -0.242188 0.539062 -0.257812 0.625 -0.28125 C 0.71875 -0.300781 0.789062 -0.332031 0.84375 -0.375 C 0.894531 -0.425781 0.925781 -0.5 0.9375 -0.59375 C 0.957031 -0.6875 0.96875 -0.804688 0.96875 -0.953125 L 0.96875 -3.875 C 0.96875 -4.03125 0.957031 -4.148438 0.9375 -4.234375 C 0.925781 -4.328125 0.898438 -4.398438 0.859375 -4.453125 C 0.816406 -4.503906 0.753906 -4.535156 0.671875 -4.546875 C 0.585938 -4.566406 0.476562 -4.582031 0.34375 -4.59375 L 0.34375 -4.84375 L 3.96875 -4.84375 L 4.046875 -3.640625 L 3.828125 -3.640625 C 3.796875 -3.816406 3.753906 -3.960938 3.703125 -4.078125 C 3.648438 -4.191406 3.570312 -4.28125 3.46875 -4.34375 C 3.375 -4.414062 3.25 -4.460938 3.09375 -4.484375 C 2.945312 -4.515625 2.757812 -4.53125 2.53125 -4.53125 L 1.734375 -4.53125 C 1.671875 -4.53125 1.640625 -4.492188 1.640625 -4.421875 L 1.640625 -2.53125 C 1.835938 -2.53125 2.007812 -2.539062 2.15625 -2.5625 C 2.300781 -2.582031 2.421875 -2.625 2.515625 -2.6875 C 2.609375 -2.75 2.675781 -2.828125 2.71875 -2.921875 C 2.769531 -3.023438 2.800781 -3.15625 2.8125 -3.3125 L 3.046875 -3.3125 L 3.046875 -1.46875 L 2.8125 -1.46875 C 2.789062 -1.632812 2.757812 -1.769531 2.71875 -1.875 C 2.675781 -1.976562 2.609375 -2.054688 2.515625 -2.109375 C 2.421875 -2.171875 2.300781 -2.210938 2.15625 -2.234375 C 2.019531 -2.265625 1.847656 -2.28125 1.640625 -2.28125 Z M 1.640625 -1 "/></g></g></g><g fill="#872b06" fill-opacity="1"><g transform="translate(64.200093, 35.478713)"><g><path d="M 1.640625 -1.1875 C 1.640625 -0.976562 1.644531 -0.8125 1.65625 -0.6875 C 1.675781 -0.570312 1.707031 -0.476562 1.75 -0.40625 C 1.800781 -0.34375 1.867188 -0.300781 1.953125 -0.28125 C 2.046875 -0.257812 2.164062 -0.242188 2.3125 -0.234375 L 2.3125 0 L 0.28125 0 L 0.28125 -0.234375 C 0.425781 -0.242188 0.539062 -0.257812 0.625 -0.28125 C 0.71875 -0.300781 0.789062 -0.34375 0.84375 -0.40625 C 0.894531 -0.46875 0.925781 -0.554688 0.9375 -0.671875 C 0.957031 -0.785156 0.96875 -0.941406 0.96875 -1.140625 L 0.96875 -3.6875 C 0.96875 -3.863281 0.957031 -4.007812 0.9375 -4.125 C 0.925781 -4.238281 0.898438 -4.328125 0.859375 -4.390625 C 0.816406 -4.460938 0.753906 -4.507812 0.671875 -4.53125 C 0.585938 -4.5625 0.476562 -4.582031 0.34375 -4.59375 L 0.34375 -4.84375 L 2.25 -4.84375 L 2.25 -4.59375 C 2.113281 -4.59375 2.003906 -4.578125 1.921875 -4.546875 C 1.847656 -4.515625 1.785156 -4.460938 1.734375 -4.390625 C 1.691406 -4.328125 1.664062 -4.234375 1.65625 -4.109375 C 1.644531 -3.992188 1.640625 -3.84375 1.640625 -3.65625 Z M 1.640625 -1.1875 "/></g></g></g><g fill="#872b06" fill-opacity="1"><g transform="translate(66.80423, 35.478713)"><g><path d="M 4.140625 -3.625 C 4.140625 -3.289062 4.035156 -3.007812 3.828125 -2.78125 C 3.628906 -2.5625 3.3125 -2.414062 2.875 -2.34375 L 4.265625 -0.671875 C 4.367188 -0.535156 4.488281 -0.4375 4.625 -0.375 C 4.769531 -0.3125 4.9375 -0.265625 5.125 -0.234375 L 5.125 0 L 3.90625 0 L 2.375 -1.96875 C 2.3125 -2.039062 2.253906 -2.097656 2.203125 -2.140625 C 2.160156 -2.179688 2.113281 -2.210938 2.0625 -2.234375 C 2.007812 -2.265625 1.945312 -2.28125 1.875 -2.28125 C 1.8125 -2.289062 1.734375 -2.296875 1.640625 -2.296875 L 1.640625 -0.984375 C 1.640625 -0.828125 1.644531 -0.695312 1.65625 -0.59375 C 1.675781 -0.5 1.71875 -0.425781 1.78125 -0.375 C 1.84375 -0.320312 1.929688 -0.285156 2.046875 -0.265625 C 2.160156 -0.242188 2.3125 -0.234375 2.5 -0.234375 L 2.5 0 L 0.28125 0 L 0.28125 -0.234375 C 0.425781 -0.242188 0.539062 -0.257812 0.625 -0.28125 C 0.71875 -0.300781 0.789062 -0.332031 0.84375 -0.375 C 0.894531 -0.425781 0.925781 -0.5 0.9375 -0.59375 C 0.957031 -0.6875 0.96875 -0.804688 0.96875 -0.953125 L 0.96875 -3.875 C 0.96875 -4.03125 0.957031 -4.148438 0.9375 -4.234375 C 0.925781 -4.328125 0.898438 -4.398438 0.859375 -4.453125 C 0.816406 -4.503906 0.753906 -4.535156 0.671875 -4.546875 C 0.585938 -4.566406 0.476562 -4.582031 0.34375 -4.59375 L 0.34375 -4.84375 L 2.3125 -4.84375 C 2.894531 -4.84375 3.34375 -4.734375 3.65625 -4.515625 C 3.976562 -4.304688 4.140625 -4.007812 4.140625 -3.625 Z M 1.640625 -2.609375 L 2.078125 -2.609375 C 2.492188 -2.609375 2.800781 -2.679688 3 -2.828125 C 3.207031 -2.984375 3.3125 -3.238281 3.3125 -3.59375 C 3.3125 -3.9375 3.226562 -4.179688 3.0625 -4.328125 C 2.90625 -4.472656 2.65625 -4.546875 2.3125 -4.546875 L 1.734375 -4.546875 C 1.671875 -4.546875 1.640625 -4.507812 1.640625 -4.4375 Z M 1.640625 -2.609375 "/></g></g></g><g fill="#872b06" fill-opacity="1"><g transform="translate(71.74895, 35.478713)"><g><path d="M 3.453125 -1.125 L 5.09375 -4.84375 L 6.5 -4.84375 L 6.5 -4.59375 C 6.363281 -4.59375 6.253906 -4.578125 6.171875 -4.546875 C 6.085938 -4.515625 6.023438 -4.460938 5.984375 -4.390625 C 5.941406 -4.328125 5.910156 -4.234375 5.890625 -4.109375 C 5.878906 -3.992188 5.875 -3.84375 5.875 -3.65625 L 5.875 -1.1875 C 5.875 -0.976562 5.878906 -0.8125 5.890625 -0.6875 C 5.910156 -0.570312 5.941406 -0.476562 5.984375 -0.40625 C 6.035156 -0.34375 6.109375 -0.300781 6.203125 -0.28125 C 6.296875 -0.257812 6.414062 -0.242188 6.5625 -0.234375 L 6.5625 0 L 4.515625 0 L 4.515625 -0.234375 C 4.671875 -0.242188 4.789062 -0.257812 4.875 -0.28125 C 4.96875 -0.300781 5.035156 -0.34375 5.078125 -0.40625 C 5.128906 -0.46875 5.164062 -0.554688 5.1875 -0.671875 C 5.207031 -0.785156 5.21875 -0.941406 5.21875 -1.140625 L 5.21875 -4.0625 L 5.15625 -4.0625 L 3.3125 0.0625 L 3.171875 0.0625 L 1.375 -4.0625 L 1.34375 -4.0625 L 1.34375 -1.1875 C 1.34375 -0.976562 1.351562 -0.8125 1.375 -0.6875 C 1.394531 -0.570312 1.425781 -0.476562 1.46875 -0.40625 C 1.519531 -0.34375 1.585938 -0.300781 1.671875 -0.28125 C 1.765625 -0.257812 1.882812 -0.242188 2.03125 -0.234375 L 2.03125 0 L 0.28125 0 L 0.28125 -0.234375 C 0.425781 -0.242188 0.539062 -0.257812 0.625 -0.28125 C 0.71875 -0.300781 0.789062 -0.34375 0.84375 -0.40625 C 0.894531 -0.46875 0.925781 -0.554688 0.9375 -0.671875 C 0.957031 -0.785156 0.96875 -0.941406 0.96875 -1.140625 L 0.96875 -3.6875 C 0.96875 -3.863281 0.957031 -4.007812 0.9375 -4.125 C 0.925781 -4.238281 0.898438 -4.328125 0.859375 -4.390625 C 0.816406 -4.460938 0.753906 -4.507812 0.671875 -4.53125 C 0.585938 -4.5625 0.476562 -4.582031 0.34375 -4.59375 L 0.34375 -4.84375 L 1.84375 -4.84375 L 3.421875 -1.125 Z M 3.453125 -1.125 "/></g></g></g><path stroke-linecap="butt" transform="matrix(0.740132, 0, 0, 0.740132, 6.8506, 35.794421)" fill="none" stroke-linejoin="miter" d="M 0.0012999 0.499426 L 40.239079 0.499426 " stroke="#872b06" stroke-width="1" stroke-opacity="1" stroke-miterlimit="4"/><g clip-path="url(#1370396fe7)"><path fill="#872b06" d="M 108.824219 30.289062 L 86.015625 30.289062 C 85.566406 30.289062 85.167969 30.589844 85.039062 31.019531 L 84.878906 31.578125 L 109.960938 31.578125 L 109.800781 31.019531 C 109.675781 30.589844 109.273438 30.289062 108.824219 30.289062 Z M 108.824219 30.289062 " fill-opacity="1" fill-rule="nonzero"/></g><path fill="#872b06" d="M 96.65625 6.949219 L 98.183594 6.949219 L 98.183594 7.75 L 96.65625 7.75 Z M 96.65625 6.949219 " fill-opacity="1" fill-rule="nonzero"/><g clip-path="url(#baeb294d1e)"><path fill="#872b06" d="M 98.316406 6.472656 C 98.699219 6.054688 98.925781 5.410156 98.925781 4.71875 C 98.925781 3.503906 98.25 2.515625 97.421875 2.515625 C 96.589844 2.515625 95.917969 3.503906 95.917969 4.71875 C 95.917969 5.410156 96.144531 6.054688 96.523438 6.472656 Z M 98.316406 6.472656 " fill-opacity="1" fill-rule="nonzero"/></g><path fill="#872b06" d="M 96.65625 8.226562 L 98.183594 8.226562 L 98.183594 26.65625 L 96.65625 26.65625 Z M 96.65625 8.226562 " fill-opacity="1" fill-rule="nonzero"/><path fill="#872b06" d="M 91.101562 28.53125 C 90.660156 28.53125 90.261719 28.824219 90.140625 29.25 L 89.976562 29.8125 L 104.867188 29.8125 L 104.703125 29.25 C 104.578125 28.824219 104.183594 28.53125 103.742188 28.53125 Z M 91.101562 28.53125 " fill-opacity="1" fill-rule="nonzero"/><path fill="#872b06" d="M 96.417969 27.128906 L 93.738281 27.128906 L 93.738281 28.054688 L 101.101562 28.054688 L 101.101562 27.128906 Z M 96.417969 27.128906 " fill-opacity="1" fill-rule="nonzero"/><g clip-path="url(#7fefd3ffa4)"><path fill="#872b06" d="M 93.0625 20.328125 L 91.902344 20.328125 L 89.371094 10.421875 C 89.582031 10.457031 89.789062 10.480469 89.996094 10.480469 C 90.960938 10.480469 91.707031 10.191406 92.429688 9.914062 C 93 9.691406 93.542969 9.480469 94.117188 9.460938 C 94.964844 9.433594 95.738281 9.808594 96.179688 10.082031 L 96.179688 8.152344 C 95.824219 8.035156 94.761719 7.71875 93.8125 7.878906 C 93.316406 7.964844 92.835938 8.222656 92.328125 8.496094 C 91.617188 8.875 90.882812 9.269531 89.992188 9.269531 C 88.964844 9.269531 88.394531 8.910156 88.117188 8.648438 C 88.019531 8.757812 87.90625 8.855469 87.777344 8.929688 C 87.664062 8.992188 87.515625 8.953125 87.453125 8.839844 C 87.386719 8.726562 87.425781 8.582031 87.539062 8.515625 C 87.816406 8.359375 87.984375 8.0625 87.984375 7.746094 C 87.984375 7.261719 87.589844 6.863281 87.101562 6.863281 C 86.613281 6.863281 86.21875 7.261719 86.21875 7.746094 C 86.21875 8.214844 86.492188 8.707031 86.921875 9.144531 L 84.0625 20.328125 L 82.902344 20.328125 C 83.089844 22.0625 85.296875 23.433594 87.984375 23.433594 C 90.667969 23.433594 92.875 22.0625 93.0625 20.328125 Z M 91.40625 20.328125 L 88.222656 20.328125 L 88.222656 10.046875 C 88.421875 10.144531 88.628906 10.222656 88.84375 10.289062 Z M 87.746094 9.792969 L 87.746094 20.328125 L 84.558594 20.328125 L 87.324219 9.5 C 87.457031 9.601562 87.597656 9.699219 87.746094 9.792969 Z M 87.746094 9.792969 " fill-opacity="1" fill-rule="nonzero"/></g><g clip-path="url(#43cf2ce606)"><path fill="#872b06" d="M 110.777344 20.328125 L 107.921875 9.144531 C 108.351562 8.707031 108.621094 8.214844 108.621094 7.746094 C 108.621094 7.261719 108.226562 6.863281 107.738281 6.863281 C 107.253906 6.863281 106.855469 7.261719 106.855469 7.746094 C 106.855469 8.0625 107.027344 8.359375 107.300781 8.515625 C 107.414062 8.582031 107.453125 8.726562 107.390625 8.839844 C 107.324219 8.953125 107.179688 8.996094 107.0625 8.929688 C 106.933594 8.855469 106.820312 8.757812 106.726562 8.648438 C 106.445312 8.910156 105.875 9.269531 104.847656 9.269531 C 103.957031 9.269531 103.222656 8.875 102.511719 8.496094 C 102.003906 8.222656 101.523438 7.964844 101.027344 7.878906 C 100.078125 7.71875 99.015625 8.035156 98.660156 8.152344 L 98.660156 10.082031 C 99.105469 9.8125 99.875 9.4375 100.722656 9.460938 C 101.300781 9.480469 101.839844 9.691406 102.414062 9.914062 C 103.132812 10.191406 103.878906 10.480469 104.847656 10.480469 C 105.050781 10.480469 105.261719 10.457031 105.46875 10.421875 L 102.9375 20.328125 L 101.777344 20.328125 C 101.964844 22.0625 104.171875 23.433594 106.859375 23.433594 C 109.542969 23.433594 111.753906 22.0625 111.9375 20.328125 Z M 107.515625 9.5 L 110.285156 20.328125 L 107.097656 20.328125 L 107.097656 9.792969 C 107.246094 9.699219 107.382812 9.601562 107.515625 9.5 Z M 106.621094 10.046875 L 106.621094 20.328125 L 103.433594 20.328125 L 105.996094 10.289062 C 106.210938 10.222656 106.417969 10.144531 106.621094 10.046875 Z M 106.621094 10.046875 " fill-opacity="1" fill-rule="nonzero"/></g><path stroke-linecap="butt" transform="matrix(0.740132, 0, 0, 0.740132, 82.532342, 35.424356)" fill="none" stroke-linejoin="miter" d="M -0.00147558 0.498037 L 40.241582 0.498037 " stroke="#872b06" stroke-width="1" stroke-opacity="1" stroke-miterlimit="4"/><g fill="#872b06" fill-opacity="1"><g transform="translate(45.09822, 18.948924)"><g><path d="M 2.265625 -10.765625 C 2.265625 -11.171875 2.242188 -11.5 2.203125 -11.75 C 2.171875 -12 2.09375 -12.195312 1.96875 -12.34375 C 1.851562 -12.488281 1.6875 -12.585938 1.46875 -12.640625 C 1.257812 -12.691406 0.972656 -12.726562 0.609375 -12.75 L 0.609375 -13.453125 L 6.5 -13.453125 L 6.5 -12.75 C 6.132812 -12.738281 5.84375 -12.703125 5.625 -12.640625 C 5.40625 -12.585938 5.234375 -12.484375 5.109375 -12.328125 C 4.992188 -12.179688 4.921875 -11.972656 4.890625 -11.703125 C 4.859375 -11.429688 4.84375 -11.078125 4.84375 -10.640625 L 4.84375 0.03125 C 4.84375 1.5 4.46875 2.617188 3.71875 3.390625 C 2.976562 4.160156 1.867188 4.546875 0.390625 4.546875 C -0.671875 4.546875 -1.488281 4.363281 -2.0625 4 C -2.644531 3.632812 -2.9375 3.175781 -2.9375 2.625 C -2.9375 2.28125 -2.828125 2.019531 -2.609375 1.84375 C -2.390625 1.664062 -2.125 1.578125 -1.8125 1.578125 C -1.550781 1.578125 -1.335938 1.644531 -1.171875 1.78125 C -1.015625 1.914062 -0.820312 2.175781 -0.59375 2.5625 C -0.363281 2.945312 -0.15625 3.203125 0.03125 3.328125 C 0.21875 3.460938 0.445312 3.53125 0.71875 3.53125 C 1.21875 3.53125 1.597656 3.253906 1.859375 2.703125 C 2.128906 2.160156 2.265625 1.394531 2.265625 0.40625 Z M 2.265625 -10.765625 "/></g></g></g><g fill="#872b06" fill-opacity="1"><g transform="translate(52.209605, 18.948924)"><g><path d="M 6.21875 -8.265625 C 6.71875 -8.648438 7.082031 -9.046875 7.3125 -9.453125 C 7.539062 -9.859375 7.65625 -10.300781 7.65625 -10.78125 C 7.65625 -11.269531 7.535156 -11.660156 7.296875 -11.953125 C 7.054688 -12.242188 6.734375 -12.390625 6.328125 -12.390625 C 5.578125 -12.390625 5.203125 -11.859375 5.203125 -10.796875 C 5.203125 -10.335938 5.289062 -9.894531 5.46875 -9.46875 C 5.644531 -9.039062 5.894531 -8.640625 6.21875 -8.265625 Z M 4.921875 -6.1875 C 4.328125 -5.789062 3.875 -5.320312 3.5625 -4.78125 C 3.25 -4.25 3.09375 -3.695312 3.09375 -3.125 C 3.09375 -2.53125 3.273438 -2.039062 3.640625 -1.65625 C 4.015625 -1.28125 4.488281 -1.09375 5.0625 -1.09375 C 5.519531 -1.09375 6.007812 -1.203125 6.53125 -1.421875 C 7.050781 -1.640625 7.550781 -1.941406 8.03125 -2.328125 Z M 9.625 -3.90625 C 9.90625 -4.226562 10.164062 -4.546875 10.40625 -4.859375 C 10.644531 -5.171875 10.847656 -5.460938 11.015625 -5.734375 C 11.191406 -6.015625 11.328125 -6.265625 11.421875 -6.484375 C 11.515625 -6.703125 11.5625 -6.878906 11.5625 -7.015625 C 11.5625 -7.203125 11.476562 -7.335938 11.3125 -7.421875 C 11.144531 -7.503906 10.859375 -7.546875 10.453125 -7.546875 L 10.453125 -8.25 L 14.671875 -8.25 L 14.671875 -7.546875 C 14.398438 -7.546875 14.171875 -7.519531 13.984375 -7.46875 C 13.796875 -7.425781 13.617188 -7.359375 13.453125 -7.265625 C 13.296875 -7.179688 13.15625 -7.070312 13.03125 -6.9375 C 12.90625 -6.8125 12.773438 -6.65625 12.640625 -6.46875 L 10.21875 -3.09375 C 10.695312 -2.488281 11.207031 -2.007812 11.75 -1.65625 C 12.300781 -1.3125 12.832031 -1.140625 13.34375 -1.140625 C 13.664062 -1.140625 13.921875 -1.191406 14.109375 -1.296875 C 14.296875 -1.410156 14.488281 -1.628906 14.6875 -1.953125 L 15.140625 -1.828125 C 15.015625 -1.179688 14.71875 -0.6875 14.25 -0.34375 C 13.789062 0 13.1875 0.171875 12.4375 0.171875 C 12.132812 0.171875 11.84375 0.132812 11.5625 0.0625 C 11.289062 0 11.015625 -0.101562 10.734375 -0.25 C 10.453125 -0.40625 10.148438 -0.601562 9.828125 -0.84375 C 9.515625 -1.082031 9.164062 -1.363281 8.78125 -1.6875 C 8.1875 -1.132812 7.484375 -0.6875 6.671875 -0.34375 C 5.867188 0 5.046875 0.171875 4.203125 0.171875 C 3.648438 0.171875 3.132812 0.09375 2.65625 -0.0625 C 2.1875 -0.21875 1.78125 -0.429688 1.4375 -0.703125 C 1.09375 -0.984375 0.820312 -1.3125 0.625 -1.6875 C 0.4375 -2.0625 0.34375 -2.472656 0.34375 -2.921875 C 0.34375 -3.703125 0.660156 -4.425781 1.296875 -5.09375 C 1.929688 -5.757812 2.941406 -6.4375 4.328125 -7.125 C 3.941406 -7.675781 3.660156 -8.1875 3.484375 -8.65625 C 3.304688 -9.132812 3.21875 -9.640625 3.21875 -10.171875 C 3.21875 -10.679688 3.296875 -11.144531 3.453125 -11.5625 C 3.617188 -11.988281 3.847656 -12.351562 4.140625 -12.65625 C 4.441406 -12.96875 4.796875 -13.207031 5.203125 -13.375 C 5.617188 -13.539062 6.078125 -13.625 6.578125 -13.625 C 7.023438 -13.625 7.4375 -13.554688 7.8125 -13.421875 C 8.1875 -13.296875 8.503906 -13.117188 8.765625 -12.890625 C 9.035156 -12.660156 9.242188 -12.382812 9.390625 -12.0625 C 9.546875 -11.75 9.625 -11.398438 9.625 -11.015625 C 9.625 -10.390625 9.398438 -9.796875 8.953125 -9.234375 C 8.515625 -8.671875 7.804688 -8.066406 6.828125 -7.421875 Z M 9.625 -3.90625 "/></g></g></g><g fill="#872b06" fill-opacity="1"><g transform="translate(67.777779, 18.948924)"><g><path d="M 2.265625 -10.765625 C 2.265625 -11.171875 2.242188 -11.5 2.203125 -11.75 C 2.171875 -12 2.09375 -12.195312 1.96875 -12.34375 C 1.851562 -12.488281 1.6875 -12.585938 1.46875 -12.640625 C 1.257812 -12.691406 0.972656 -12.726562 0.609375 -12.75 L 0.609375 -13.453125 L 6.5 -13.453125 L 6.5 -12.75 C 6.132812 -12.738281 5.84375 -12.703125 5.625 -12.640625 C 5.40625 -12.585938 5.234375 -12.484375 5.109375 -12.328125 C 4.992188 -12.179688 4.921875 -11.972656 4.890625 -11.703125 C 4.859375 -11.429688 4.84375 -11.078125 4.84375 -10.640625 L 4.84375 0.03125 C 4.84375 1.5 4.46875 2.617188 3.71875 3.390625 C 2.976562 4.160156 1.867188 4.546875 0.390625 4.546875 C -0.671875 4.546875 -1.488281 4.363281 -2.0625 4 C -2.644531 3.632812 -2.9375 3.175781 -2.9375 2.625 C -2.9375 2.28125 -2.828125 2.019531 -2.609375 1.84375 C -2.390625 1.664062 -2.125 1.578125 -1.8125 1.578125 C -1.550781 1.578125 -1.335938 1.644531 -1.171875 1.78125 C -1.015625 1.914062 -0.820312 2.175781 -0.59375 2.5625 C -0.363281 2.945312 -0.15625 3.203125 0.03125 3.328125 C 0.21875 3.460938 0.445312 3.53125 0.71875 3.53125 C 1.21875 3.53125 1.597656 3.253906 1.859375 2.703125 C 2.128906 2.160156 2.265625 1.394531 2.265625 0.40625 Z M 2.265625 -10.765625 "/></g></g></g></svg>